<?xml version="1.0" encoding="UTF-8" standalone="no"?>
<!DOCTYPE svg PUBLIC "-//W3C//DTD SVG 1.1//EN" "http://www.w3.org/Graphics/SVG/1.1/DTD/svg11.dtd">
<svg width="171.15" height="159.02" viewBox="0.00 0.00 832.00 773.00" xmlns="http://www.w3.org/2000/svg" xmlns:xlink="http://www.w3.org/1999/xlink">
<g stroke-linecap="round" id="레이어_1_2_복사">
<path d="M357.47,99.22 C351.21,99.93 336.60,101.64 328.41,103.16 C310.70,106.69 287.82,113.08 273.73,118.35 C269.80,119.83 249.67,128.31 245.77,130.17 C239.97,132.95 226.02,140.84 219.87,144.52 C213.64,148.36 200.88,156.96 194.33,161.66 C186.02,167.78 180.50,172.22 173.56,178.45 C168.80,182.89 156.50,194.68 153.01,198.39 C147.64,204.22 135.22,218.39 132.51,221.80 C128.92,226.32 120.52,238.61 116.87,244.35 C104.89,263.84 95.78,280.64 90.03,294.55 C87.31,301.52 81.31,317.54 79.53,323.03 C77.15,330.84 72.43,348.23 71.50,352.45 C69.44,361.83 64.87,400.93 64.56,408.95 C64.37,415.39 64.66,430.00 64.98,437.38 C65.29,443.00 67.31,462.55 68.20,468.50 C69.55,476.83 72.29,491.85 73.89,497.98 C78.53,514.86 84.38,531.56 92.67,552.52 C94.22,556.19 102.49,571.67 106.21,578.51 C111.78,588.20 118.87,599.26 123.37,605.88 C129.63,614.66 136.42,623.47 142.24,630.23 C152.10,641.23 175.51,663.82 186.04,672.43 C191.70,676.81 201.41,683.86 210.16,689.63 C216.87,693.91 230.29,701.99 236.89,705.52 C243.50,708.91 259.50,716.37 264.00,718.17 C281.07,724.78 308.43,733.34 322.40,736.09 C326.24,736.84 344.63,739.61 352.16,740.55 C357.36,741.13 374.00,742.30 381.19,742.56 C388.35,742.69 402.90,742.14 410.31,741.62 C419.99,740.76 433.19,739.04 441.16,737.82 C452.06,735.96 462.96,733.66 470.29,731.61 C477.14,729.61 491.31,724.93 498.27,722.51 C505.68,719.75 517.48,714.95 527.11,710.38 C534.11,706.83 547.60,699.57 554.23,695.59 C560.86,691.45 573.59,682.95 579.50,678.56 C585.27,674.15 598.84,663.07 602.28,659.91 C607.77,654.77 618.13,644.45 623.04,639.46 C628.43,633.63 638.28,622.32 642.56,616.52 C646.67,610.86 655.02,598.69 659.05,592.69 C668.72,577.20 679.31,556.25 686.38,539.10 C688.20,534.52 694.35,516.53 696.64,509.09 C698.80,501.72 701.90,488.72 703.61,479.98 C705.69,468.19 709.12,434.23 709.27,421.32 C709.24,412.59 708.38,398.87 707.71,390.85 C706.56,379.53 705.31,370.26 703.36,359.15 C701.21,348.33 699.11,339.67 696.23,329.68 C693.99,322.52 688.95,308.26 686.38,301.35 C683.52,294.18 678.72,283.02 674.37,274.26 C671.07,268.04 663.85,255.44 659.82,248.98 C655.52,242.32 645.09,227.10 642.27,223.42 C633.52,212.17 612.26,189.62 603.64,181.67 C589.56,169.08 574.52,157.90 558.77,147.63 C550.91,142.74 539.37,136.19 532.27,132.39 C525.14,128.79 510.42,122.43 503.01,119.53 C497.65,117.52 481.57,112.21 475.04,110.12 C466.35,107.50 459.44,105.91 449.89,104.12 C442.19,102.74 426.50,100.33 418.87,99.45 C411.33,98.74 394.76,97.80 389.12,97.75 C381.82,97.81 367.50,98.44 360.77,98.92 C343.03,100.66 328.30,103.15 325.69,103.62" fill="none" stroke="rgb(0, 0, 0)" stroke-width="25.00" stroke-opacity="1.00" stroke-linejoin="round"/>
<path d="M90.85,382.67 C97.65,374.63 104.75,366.76 109.16,363.74 C111.68,362.06 118.02,359.34 120.65,358.99 C125.13,358.44 129.21,359.05 130.74,359.47 C130.74,359.47 133.88,360.85 133.88,360.85 C133.88,360.85 137.06,363.43 137.06,363.43 C138.68,365.26 140.37,368.32 141.85,372.34 C143.15,375.97 143.94,379.42 144.32,383.06 C145.06,390.85 144.54,405.34 143.28,410.57 C142.43,413.93 139.45,419.55 139.15,421.16 C138.49,424.75 138.58,430.66 139.20,434.88 C140.22,441.73 143.75,455.63 147.32,463.93 C148.63,466.98 150.12,467.46 151.40,467.42 C154.41,465.71 158.64,461.79 161.17,459.46 C166.46,454.46 176.60,443.90 180.78,440.65 C186.44,436.29 196.21,431.61 204.72,428.99 C208.04,427.99 213.20,427.02 216.12,426.79 C218.64,426.61 225.03,426.72 228.03,428.01 C231.06,429.36 235.29,433.96 236.72,436.10 C241.26,443.00 245.74,461.25 248.17,466.97 C246.90,464.66 242.37,447.85 240.18,442.64 C239.79,441.72 239.36,440.72 239.37,440.74 C242.08,446.68 246.19,463.28 248.34,467.30 C250.09,470.51 263.16,486.80 265.77,489.62 C270.43,494.60 284.99,506.42 287.33,507.78 C288.45,508.42 297.45,511.96 297.72,512.01 C301.11,512.64 306.23,511.31 307.61,510.40 C309.31,509.22 311.49,505.78 312.08,503.74 C312.62,501.80 313.15,497.06 313.02,493.80 C312.89,491.16 311.41,486.14 309.40,482.64 C308.94,481.85 303.76,473.59 302.50,471.43 C300.55,468.05 299.13,463.92 299.13,460.93 C299.17,458.58 300.16,452.57 301.61,451.16 C302.54,450.31 307.79,448.36 310.38,448.23 C314.24,448.04 334.08,449.55 336.24,449.57 C341.77,449.50 346.39,449.05 349.21,447.88 C352.24,446.58 357.39,443.25 359.62,441.31 C363.78,437.64 372.92,424.56 375.08,420.05 C376.21,417.66 377.95,411.27 378.04,409.20 C378.29,402.46 369.97,360.97 370.70,357.40 C370.86,356.68 372.12,354.51 372.46,353.93 C373.74,351.91 378.13,350.49 381.12,350.56 C383.35,350.68 386.88,352.49 389.90,354.89 C392.11,356.66 395.86,360.63 397.30,363.53 C398.26,365.51 401.28,374.36 401.75,375.55 C403.37,379.53 407.75,381.97 408.00,382.00 C410.61,382.34 416.10,380.84 418.10,379.31 C419.07,378.52 420.98,375.98 421.64,374.61 C422.31,373.11 423.09,369.60 422.99,368.10 C422.75,365.25 419.93,359.25 418.29,357.40 C417.33,356.31 414.81,353.65 414.37,352.98 C413.32,351.26 412.76,348.64 413.31,347.41 C414.60,344.81 419.42,340.86 424.12,338.52 C428.72,336.23 430.96,334.68 433.61,331.91 C439.50,325.61 446.11,316.95 448.37,311.63 C450.41,306.78 453.61,292.23 453.71,287.64 C453.76,284.76 453.19,276.36 452.26,272.83 C451.42,269.76 449.26,266.12 447.44,264.86 C446.06,263.86 444.05,262.10 443.59,260.96 C443.09,259.65 443.26,256.16 443.63,254.87 C444.60,252.01 447.42,248.38 450.58,245.40 C456.84,239.59 471.19,226.31 472.66,225.17 C474.22,224.01 480.74,222.21 483.83,221.42 C488.95,220.07 500.17,219.37 503.12,219.20 C503.12,219.20 505.75,218.40 505.75,218.40 C508.48,216.64 511.37,213.48 513.17,210.02 C516.08,204.17 516.12,197.39 516.08,195.67 C516.08,195.67 515.07,192.80 515.07,192.80 C513.08,189.75 509.52,186.44 505.60,184.33 C502.66,182.80 498.21,182.04 494.29,182.27 C491.84,182.43 441.94,188.77 434.28,189.09 C431.20,189.21 423.31,189.02 419.89,188.34 C416.91,187.73 404.47,183.45 395.13,179.40 C388.07,176.28 371.57,169.09 368.40,167.91 C363.61,166.13 345.52,160.93 341.14,160.37 C336.84,159.85 328.00,160.54 326.63,160.66 C321.06,161.23 307.81,165.00 300.49,167.09 C290.58,169.92 281.05,171.47 275.58,170.98 C269.05,170.34 265.00,166.82 264.36,166.07 C264.36,166.07 263.29,163.07 263.29,163.07 C263.29,163.07 263.75,159.46 263.75,159.46 C263.75,159.46 268.47,144.01 268.47,144.01 C267.50,147.22 264.43,157.80 264.02,159.11 C263.29,161.53 263.30,163.94 264.13,165.68 C265.20,167.76 270.44,169.93 274.44,170.72 C277.58,171.29 282.60,171.04 286.48,170.53 C290.70,169.96 307.31,164.95 314.16,163.05 C321.29,161.19 328.31,160.46 333.66,160.06 C333.66,160.06 337.98,160.07 337.98,160.07" fill="none" stroke="rgb(0, 0, 0)" stroke-width="17.00" stroke-opacity="0.99" stroke-linejoin="round"/>
<path d="M406.23,402.82 C406.23,402.82 406.23,404.30 406.23,404.30 C406.23,404.30 406.45,403.73 406.45,403.73" fill="none" stroke="rgb(0, 0, 0)" stroke-width="10.00" stroke-opacity="0.99" stroke-linejoin="round"/>
<path d="M437.82,357.14 C437.82,357.14 436.91,357.14 436.91,357.14" fill="none" stroke="rgb(0, 0, 0)" stroke-width="4.00" stroke-opacity="0.99" stroke-linejoin="round"/>
<path d="M555.32,172.91 C555.95,176.95 555.36,179.68 554.07,180.24 C552.10,181.03 547.61,180.22 544.79,179.35 C535.44,176.35 519.82,170.27 517.14,168.87 C514.60,167.53 509.43,164.28 507.88,162.95 C506.45,161.67 505.32,159.91 504.96,158.27 C504.77,157.39 503.82,149.50 503.50,146.75" fill="none" stroke="rgb(0, 0, 0)" stroke-width="17.00" stroke-opacity="0.99" stroke-linejoin="round"/>
<path d="M466.68,335.77 C467.98,346.73 469.00,358.81 467.48,361.33 C467.45,361.38 455.95,377.40 451.45,381.58 C446.95,385.72 440.02,391.24 439.18,391.91" fill="none" stroke="rgb(0, 0, 0)" stroke-width="17.00" stroke-opacity="0.99" stroke-linejoin="round"/>
<path d="M235.09,528.73 C238.22,534.21 245.41,546.75 249.47,553.80 C254.43,562.19 259.59,569.14 264.48,574.90 C269.94,581.24 279.49,589.40 284.34,593.42 C286.98,595.70 289.00,596.46 293.87,597.66 C322.89,604.27 373.95,615.94 396.00,621.00" fill="none" stroke="rgb(0, 0, 0)" stroke-width="17.00" stroke-opacity="0.99" stroke-linejoin="round"/>
<path d="M360.42,549.40 C358.99,559.30 358.09,564.16 355.83,573.06 C354.76,577.06 351.73,582.58 349.17,585.15 C347.37,586.88 343.28,588.60 341.09,588.60 C338.65,588.53 334.95,586.49 328.96,583.00 C323.95,580.10 318.48,576.78 316.20,574.90 C313.92,572.98 311.20,568.46 311.02,565.72 C310.97,564.59 311.46,561.23 311.79,560.34 C312.46,558.70 316.01,557.38 320.91,556.03 C325.64,554.77 332.35,552.46 335.29,550.52 C335.43,550.43 343.16,543.86 344.98,542.62 C345.43,542.33 347.94,540.83 348.79,540.45 C351.12,539.48 354.20,539.14 356.24,539.71 C357.10,539.97 359.25,541.81 359.63,542.36 C360.57,543.90 360.58,546.95 360.45,549.69 C360.45,549.69 360.61,547.24 360.61,547.24 C360.61,547.24 360.26,551.15 360.26,551.15" fill="none" stroke="rgb(0, 0, 0)" stroke-width="17.00" stroke-opacity="0.99" stroke-linejoin="round"/>
<path d="M498.95,584.62 C502.88,586.27 508.14,589.06 510.94,591.24 C512.91,592.82 515.57,597.00 515.78,598.36 C516.06,600.66 514.76,603.41 512.68,604.52 C508.96,606.45 498.37,606.77 486.32,606.40 C479.07,606.15 469.77,605.80 467.05,605.18 C465.39,604.73 463.76,603.41 463.11,601.78 C462.77,600.90 461.77,583.29 461.79,582.93 C461.85,582.20 464.61,581.43 465.54,581.19 C470.16,580.04 474.99,579.39 478.19,579.49 C481.92,579.65 488.32,580.96 492.63,582.30 C496.84,583.64 503.21,586.44 506.51,588.40 C509.85,590.42 513.81,593.52 514.57,595.32 C514.87,596.04 515.66,598.43 515.94,599.32 C515.94,599.32 514.90,602.85 514.90,602.85" fill="none" stroke="rgb(0, 0, 0)" stroke-width="17.00" stroke-opacity="0.99" stroke-linejoin="round"/>
<path d="M460.68,648.88 C457.94,648.24 456.37,647.74 455.54,647.12 C454.58,646.38 453.44,644.90 452.69,643.44 C452.08,642.24 449.22,634.31 448.28,633.78 C446.85,633.04 444.18,632.92 442.40,633.45 C441.44,633.75 418.09,640.27 415.39,641.12 C408.92,643.18 394.67,648.93 390.34,651.63 C387.32,653.54 384.84,655.60 382.46,658.95 C380.10,662.24 374.66,666.42 371.51,667.79 C368.82,668.93 350.18,672.90 346.06,674.46 C345.21,674.81 341.98,676.66 341.21,677.48 C340.49,678.28 339.26,681.44 339.28,682.15 C339.44,684.57 343.23,693.28 343.85,694.56 C344.96,696.84 349.20,702.41 351.29,704.53 C352.74,705.99 357.87,709.44 360.42,710.59 C363.08,711.76 368.71,713.60 371.13,714.05 C373.95,714.56 381.41,714.96 384.81,714.97 C388.46,714.96 393.27,714.27 396.52,713.38 C407.17,710.43 413.25,709.27 419.38,709.20 C425.16,709.16 438.46,711.71 445.01,713.02 C434.41,710.81 423.82,709.03 417.54,709.22 C414.51,709.32 407.76,710.25 405.68,710.74 C404.14,711.12 397.75,713.11 395.02,713.71 C388.32,715.16 376.95,715.08 371.33,713.99 C367.89,713.31 363.33,711.88 360.19,710.47 C356.91,708.96 351.69,705.17 349.21,702.26 C344.89,697.04 340.42,687.55 339.64,684.51 C339.64,684.51 339.60,680.50 339.60,680.50 C339.60,680.50 341.00,677.68 341.00,677.68 C344.41,675.11 348.50,673.49 351.44,672.71 C354.81,671.84 363.01,670.41 364.75,669.97 C367.22,669.34 374.41,666.55 376.15,665.42 C378.69,663.75 384.18,656.44 385.63,655.06 C389.37,651.53 403.98,644.86 410.93,642.59 C415.47,641.11 444.22,632.93 444.67,632.94 C446.99,633.04 448.90,634.18 449.71,635.97 C450.90,638.71 452.72,644.07 454.11,645.76 C455.25,647.08 459.16,648.85 461.92,649.10 C462.77,649.18 472.43,649.38 474.29,648.39 C475.53,647.71 477.23,645.19 478.02,643.56 C479.13,640.95 481.21,637.22 483.61,634.24 C485.25,632.25 487.11,630.74 488.22,630.53 C489.56,630.33 494.14,632.23 495.84,633.63 C498.32,635.71 511.98,650.27 517.49,656.49 C524.53,664.77 526.63,668.18 527.19,669.30 C527.19,669.30 526.24,667.53 526.24,667.53 C526.24,667.53 527.19,669.30 527.19,669.30 C527.45,671.37 525.57,674.97 522.33,679.86 C519.97,683.35 516.02,689.19 514.43,691.54" fill="none" stroke="rgb(0, 0, 0)" stroke-width="17.00" stroke-opacity="0.99" stroke-linejoin="round"/>
<path d="M113.42,287.02 C104.29,298.39 87.23,322.71 81.27,332.06 C77.14,338.91 68.65,353.87 66.13,358.61 C63.54,363.59 47.23,402.44 46.48,403.56 C46.31,403.80 45.97,404.19 45.46,404.71 C45.46,404.71 47.30,400.27 47.30,400.27" fill="none" stroke="rgb(255, 255, 255)" stroke-width="10.00" stroke-opacity="1.00" stroke-linejoin="round"/>
<path d="M116.13,279.38 C107.27,291.58 89.78,315.97 81.87,327.75 C69.35,347.43 62.03,360.54 54.12,376.90 C49.22,387.34 46.54,392.18 45.62,393.73 C45.62,393.73 46.84,389.96 46.84,389.96" fill="none" stroke="rgb(255, 255, 255)" stroke-width="10.00" stroke-opacity="1.00" stroke-linejoin="round"/>
<path d="M113.42,284.39 C104.66,297.53 88.14,322.49 80.38,334.31 C70.93,349.58 61.16,366.97 51.81,386.55 C51.12,388.02 49.36,391.80 48.28,394.12 C47.54,395.73 46.35,398.34 45.90,399.32" fill="none" stroke="rgb(255, 255, 255)" stroke-width="10.00" stroke-opacity="1.00" stroke-linejoin="round"/>
<path d="M106.13,292.82 C101.57,298.51 89.14,314.20 86.34,318.13 C82.48,323.57 76.51,334.32 73.55,341.66 C72.74,343.69 71.39,347.05 70.85,348.38" fill="none" stroke="rgb(255, 255, 255)" stroke-width="10.00" stroke-opacity="1.00" stroke-linejoin="round"/>
<path d="M322.23,79.75 C318.43,81.65 314.38,84.71 312.67,87.40 C311.83,88.77 310.80,91.75 310.65,93.27 C310.55,94.88 311.22,98.13 312.01,99.46 C313.42,101.75 318.20,105.49 319.16,106.07 C321.83,107.65 341.40,116.14 342.73,116.87 C344.44,117.83 346.22,119.11 346.92,119.83" fill="none" stroke="rgb(255, 255, 255)" stroke-width="10.00" stroke-opacity="1.00" stroke-linejoin="round"/>
<path d="M314.77,82.31 C312.96,84.32 310.90,87.66 310.23,90.84 C309.90,92.57 309.89,95.21 310.28,96.78 C311.10,99.85 315.03,104.47 317.26,106.16 C322.62,110.13 346.50,119.96 347.01,120.15 C347.41,120.29 348.03,120.48 348.88,120.69" fill="none" stroke="rgb(255, 255, 255)" stroke-width="10.00" stroke-opacity="1.00" stroke-linejoin="round"/>
<path d="M317.55,106.75 C319.96,110.13 328.83,116.39 335.14,120.28 C338.17,122.20 339.42,123.42 339.76,123.77 C339.85,123.86 339.91,123.91 339.94,123.91" fill="none" stroke="rgb(255, 255, 255)" stroke-width="10.00" stroke-opacity="1.00" stroke-linejoin="round"/>
<path d="M436.11,169.19 C427.13,176.00 421.12,180.18 413.90,184.40 C406.45,188.61 375.50,204.73 375.25,204.87 C375.03,204.99 374.79,205.13 374.55,205.29" fill="none" stroke="rgb(255, 255, 255)" stroke-width="10.00" stroke-opacity="1.00" stroke-linejoin="round"/>
<path d="M439.33,165.77 C438.64,165.41 434.36,167.61 430.06,170.53 C416.89,179.49 395.08,194.13 378.75,203.93 C378.75,203.93 383.28,202.04 383.28,202.04" fill="none" stroke="rgb(255, 255, 255)" stroke-width="10.00" stroke-opacity="1.00" stroke-linejoin="round"/>
<path d="M437.05,166.06 C431.43,170.74 419.57,180.48 414.00,184.24 C400.66,193.00 379.94,203.16 380.33,203.07 C380.45,203.04 381.07,202.83 382.21,202.43" fill="none" stroke="rgb(255, 255, 255)" stroke-width="10.00" stroke-opacity="1.00" stroke-linejoin="round"/>
<path d="M426.30,172.26 C422.72,174.47 409.81,183.79 403.35,188.34 C396.63,192.85 379.04,203.99 378.63,204.33 C378.29,204.61 377.58,205.30 376.50,206.37" fill="none" stroke="rgb(255, 255, 255)" stroke-width="10.00" stroke-opacity="1.00" stroke-linejoin="round"/>
<path d="M436.80,166.28 C434.36,167.69 419.92,178.75 415.12,181.98 C407.04,187.28 374.43,205.54 370.29,208.92 C369.91,209.23 368.78,210.17 369.17,209.87 C369.29,209.78 369.94,209.26 371.13,208.31" fill="none" stroke="rgb(255, 255, 255)" stroke-width="10.00" stroke-opacity="1.00" stroke-linejoin="round"/>
<path d="M433.07,165.43 C430.06,166.73 416.78,176.57 410.78,181.24 C398.11,191.43 383.05,205.30 380.67,208.03 C380.65,208.06 381.04,207.87 383.00,206.41 C383.95,205.69 384.91,204.98 385.87,204.26" fill="none" stroke="rgb(255, 255, 255)" stroke-width="10.00" stroke-opacity="1.00" stroke-linejoin="round"/>
<path d="M483.81,272.65 C474.04,279.06 467.66,282.96 460.00,287.01 C452.97,290.60 439.43,296.89 432.27,300.17 C420.96,305.19 412.57,308.46 407.85,309.66 C407.85,309.66 411.81,309.15 411.81,309.15" fill="none" stroke="rgb(255, 255, 255)" stroke-width="10.00" stroke-opacity="1.00" stroke-linejoin="round"/>
<path d="M484.76,274.13 C477.82,278.95 471.21,282.92 462.00,287.58 C447.72,294.33 422.10,306.13 410.76,311.17 C410.76,311.17 417.69,307.44 417.69,307.44" fill="none" stroke="rgb(255, 255, 255)" stroke-width="10.00" stroke-opacity="1.00" stroke-linejoin="round"/>
<path d="M482.35,277.26 C470.32,284.47 441.03,299.38 426.04,306.87 C423.53,308.10 417.84,310.75 415.69,311.73 C415.69,311.73 417.57,310.54 417.57,310.54" fill="none" stroke="rgb(255, 255, 255)" stroke-width="10.00" stroke-opacity="1.00" stroke-linejoin="round"/>
<path d="M649.15,174.43 C644.26,189.62 635.73,216.68 630.81,234.84 C629.51,239.94 625.78,258.65 624.44,264.75 C624.44,264.75 624.09,264.77 624.09,264.77 C624.09,264.77 624.14,259.80 624.14,259.80" fill="none" stroke="rgb(255, 255, 255)" stroke-width="10.00" stroke-opacity="1.00" stroke-linejoin="round"/>
<path d="M647.25,170.33 C645.11,176.22 641.00,187.94 639.02,194.09 C633.64,212.27 626.34,241.76 624.52,251.59 C623.87,255.44 622.36,264.54 622.33,264.68 C622.29,264.84 622.25,264.89 622.21,264.80 C622.34,263.58 622.48,262.45 622.75,260.52 C622.86,259.79 622.96,259.06 623.06,258.32" fill="none" stroke="rgb(255, 255, 255)" stroke-width="10.00" stroke-opacity="1.00" stroke-linejoin="round"/>
<path d="M648.77,173.35 C648.77,173.35 649.24,171.95 649.24,171.95 C648.57,177.16 637.81,210.85 632.94,226.04 C628.67,240.84 622.43,262.90 621.79,264.25 C621.67,264.48 621.51,264.63 621.29,264.69" fill="none" stroke="rgb(255, 255, 255)" stroke-width="10.00" stroke-opacity="1.00" stroke-linejoin="round"/>
<path d="M653.63,170.50 C651.35,176.81 646.63,190.13 644.19,197.14 C639.27,211.87 629.85,240.88 626.66,254.60 C625.40,260.15 624.27,264.59 623.60,266.54 C623.60,266.54 623.44,262.36 623.44,262.36" fill="none" stroke="rgb(255, 255, 255)" stroke-width="10.00" stroke-opacity="1.00" stroke-linejoin="round"/>
<path d="M650.66,168.12 C650.29,170.63 648.88,176.84 648.28,179.26 C639.91,210.58 624.92,265.36 623.41,268.90 C623.27,269.22 623.00,269.77 622.62,270.55 C622.62,270.55 622.24,269.81 622.24,269.81" fill="none" stroke="rgb(255, 255, 255)" stroke-width="10.00" stroke-opacity="1.00" stroke-linejoin="round"/>
<path d="M123.31,266.80 C121.39,268.62 120.55,269.50 119.43,270.97 C110.26,282.84 92.27,306.49 83.81,318.25 C72.49,334.54 48.60,375.08 48.25,375.64 C47.29,377.17 45.92,379.21 45.11,380.34" fill="none" stroke="rgb(255, 255, 255)" stroke-width="10.00" stroke-opacity="1.00" stroke-linejoin="round"/>
<path d="M126.85,260.02 C117.97,271.69 99.44,296.58 91.02,308.49 C80.80,323.37 65.30,348.33 58.97,360.78 C56.86,365.04 55.33,368.33 54.08,371.32 C53.70,372.23 53.32,373.15 52.94,374.07" fill="none" stroke="rgb(255, 255, 255)" stroke-width="10.00" stroke-opacity="1.00" stroke-linejoin="round"/>
<path d="M304.77,84.34 C304.65,85.51 304.33,88.79 304.30,89.48 C304.20,93.15 305.97,98.84 307.51,101.12 C309.95,104.59 316.96,109.91 321.55,112.04 C323.50,112.94 330.49,115.48 331.82,115.91 C334.15,116.64 339.91,118.18 342.02,118.75" fill="none" stroke="rgb(255, 255, 255)" stroke-width="10.00" stroke-opacity="1.00" stroke-linejoin="round"/>
<path d="M305.63,88.78 C305.44,90.45 306.29,95.87 307.82,98.76 C310.05,102.85 316.78,109.44 320.72,111.99 C322.54,113.15 329.58,116.72 330.95,117.31 C335.20,119.13 344.44,121.57 346.53,122.13" fill="none" stroke="rgb(255, 255, 255)" stroke-width="10.00" stroke-opacity="1.00" stroke-linejoin="round"/>
<path d="M313.88,102.83 C315.86,106.73 318.91,110.48 321.13,112.52 C326.17,117.10 335.23,121.79 338.22,123.05 C341.19,124.28 345.11,125.14 346.71,125.32" fill="none" stroke="rgb(255, 255, 255)" stroke-width="10.00" stroke-opacity="1.00" stroke-linejoin="round"/>
<path d="M430.10,165.95 C427.63,167.44 405.48,183.76 385.00,197.60 C382.17,199.53 378.63,202.18 378.04,202.60" fill="none" stroke="rgb(255, 255, 255)" stroke-width="10.00" stroke-opacity="1.00" stroke-linejoin="round"/>
<path d="M481.15,278.63 C474.95,282.46 461.38,290.79 454.26,294.99 C451.37,296.65 430.28,307.88 428.91,308.92 C428.91,308.92 431.99,307.50 431.99,307.50" fill="none" stroke="rgb(255, 255, 255)" stroke-width="10.00" stroke-opacity="1.00" stroke-linejoin="round"/>
<path d="M205.10,400.49 C200.42,406.38 193.76,416.38 190.05,422.91 C184.90,432.24 179.63,443.24 176.70,450.88 C174.08,457.80 170.13,473.16 169.23,480.54 C168.80,484.16 168.32,493.22 168.36,493.71 C168.38,493.95 168.45,494.18 168.59,494.39" fill="none" stroke="rgb(255, 255, 255)" stroke-width="10.00" stroke-opacity="1.00" stroke-linejoin="round"/>
<path d="M208.96,397.42 C205.25,401.90 197.90,412.93 193.99,420.04 C190.38,426.73 184.48,440.19 182.00,447.05 C180.11,452.30 176.63,464.51 174.84,473.11 C173.81,478.09 172.46,487.54 172.35,488.25 C172.31,488.51 172.26,488.79 172.20,489.09" fill="none" stroke="rgb(255, 255, 255)" stroke-width="10.00" stroke-opacity="1.00" stroke-linejoin="round"/>
<path d="M213.95,387.11 C210.77,389.70 202.31,401.39 197.01,410.18 C192.88,417.23 187.68,427.29 184.09,435.41 C179.83,445.44 175.68,456.38 173.67,463.72 C172.06,469.62 170.01,479.66 169.88,481.57 C169.82,482.44 169.75,485.27 169.73,486.30" fill="none" stroke="rgb(255, 255, 255)" stroke-width="10.00" stroke-opacity="1.00" stroke-linejoin="round"/>
<path d="M211.99,395.88 C208.73,399.38 201.02,410.49 196.86,417.66 C193.59,423.51 188.87,432.38 185.06,440.61 C181.88,447.65 177.55,459.04 175.81,465.61 C174.00,472.57 172.63,487.49 172.85,490.86" fill="none" stroke="rgb(255, 255, 255)" stroke-width="10.00" stroke-opacity="1.00" stroke-linejoin="round"/>
<path d="M208.89,399.69 C205.36,403.83 197.97,415.26 194.66,421.94 C191.36,428.65 186.20,442.12 183.85,449.66 C180.61,460.13 175.40,485.23 174.94,490.92 C174.92,491.14 174.91,491.43 174.92,491.77" fill="none" stroke="rgb(255, 255, 255)" stroke-width="10.00" stroke-opacity="1.00" stroke-linejoin="round"/>
<path d="M217.37,385.63 C211.99,392.85 207.13,400.04 201.48,409.15 C197.97,414.93 190.15,429.80 188.51,433.35 C186.50,437.69 180.14,453.70 177.88,461.33 C174.96,471.31 171.88,490.19 171.77,490.71 C171.70,491.05 171.56,491.64 171.34,492.50" fill="none" stroke="rgb(255, 255, 255)" stroke-width="10.00" stroke-opacity="1.00" stroke-linejoin="round"/>
<path d="M212.18,400.26 C208.08,404.01 199.60,415.46 195.77,422.30 C191.71,429.62 186.43,441.80 184.30,447.71 C181.91,454.39 178.46,467.47 176.85,475.18 C176.07,479.00 175.12,488.03 175.13,488.69 C175.14,489.04 175.22,489.38 175.37,489.72" fill="none" stroke="rgb(255, 255, 255)" stroke-width="10.00" stroke-opacity="1.00" stroke-linejoin="round"/>
<path d="M167.06,591.34 C166.23,595.30 165.73,611.90 165.70,619.82 C165.90,630.69 166.86,642.85 168.23,651.53 C169.36,658.65 172.82,672.62 175.06,679.99 C177.26,686.92 183.94,707.53 184.04,707.91 C184.12,708.19 184.21,708.59 184.32,709.12" fill="none" stroke="rgb(255, 255, 255)" stroke-width="10.00" stroke-opacity="1.00" stroke-linejoin="round"/>
<path d="M165.54,593.13 C165.61,599.82 165.86,614.44 166.20,621.88 C166.68,628.84 168.22,643.39 169.30,651.04 C170.73,659.91 174.19,674.77 176.34,681.24 C180.98,695.12 189.82,710.60 190.33,711.25 C190.69,711.70 191.51,712.59 192.81,713.94" fill="none" stroke="rgb(255, 255, 255)" stroke-width="10.00" stroke-opacity="1.00" stroke-linejoin="round"/>
<path d="M170.26,607.11 C169.12,612.14 167.86,625.92 168.06,632.37 C168.31,639.64 170.49,655.52 171.32,658.99 C172.61,664.33 178.41,680.94 181.54,687.52 C183.28,691.16 193.60,710.27 194.81,712.17 C196.24,714.41 198.05,716.98 198.97,718.14" fill="none" stroke="rgb(255, 255, 255)" stroke-width="10.00" stroke-opacity="1.00" stroke-linejoin="round"/>
<path d="M169.92,608.47 C168.94,615.90 168.36,628.60 168.67,635.78 C169.14,644.96 170.85,658.07 172.58,665.41 C173.96,671.16 179.69,687.66 181.63,691.27 C186.25,699.61 190.19,705.95 194.74,711.63 C198.24,715.95 198.88,716.71 199.56,717.46" fill="none" stroke="rgb(255, 255, 255)" stroke-width="10.00" stroke-opacity="1.00" stroke-linejoin="round"/>
<path d="M170.68,607.33 C169.80,614.93 169.08,627.90 168.99,633.83 C169.03,640.82 169.54,657.17 170.11,661.25 C171.07,668.02 173.71,679.80 175.77,685.52 C178.88,694.13 190.72,714.41 192.08,717.06 C192.47,717.82 193.69,720.43 194.05,721.21" fill="none" stroke="rgb(255, 255, 255)" stroke-width="10.00" stroke-opacity="1.00" stroke-linejoin="round"/>
<path d="M170.60,621.13 C170.69,631.67 171.07,641.68 172.06,648.11 C172.93,653.61 176.87,670.70 178.11,675.00 C182.98,691.11 190.47,709.03 193.09,713.34 C194.86,716.17 198.30,719.77 199.57,720.06 C199.74,720.10 200.08,720.11 200.58,720.11" fill="none" stroke="rgb(255, 255, 255)" stroke-width="10.00" stroke-opacity="1.00" stroke-linejoin="round"/>
<path d="M175.65,615.07 C175.31,617.69 174.33,625.46 174.08,628.04 C173.41,635.13 173.89,649.27 174.71,654.64 C176.13,662.92 179.08,674.07 180.15,677.29 C184.59,690.54 195.40,711.12 195.88,711.98 C197.13,714.18 198.72,716.81 199.46,717.92" fill="none" stroke="rgb(255, 255, 255)" stroke-width="10.00" stroke-opacity="1.00" stroke-linejoin="round"/>
<path d="M177.00,631.66 C176.64,640.81 176.62,651.44 177.12,657.19 C177.70,663.60 180.93,678.46 183.43,685.41 C186.08,692.72 190.51,701.42 195.52,708.88 C197.55,711.83 201.19,717.12 202.85,719.87 C203.03,720.17 203.11,720.32 203.10,720.33" fill="none" stroke="rgb(255, 255, 255)" stroke-width="10.00" stroke-opacity="1.00" stroke-linejoin="round"/>
<path d="M650.20,180.13 C649.77,186.77 646.24,198.95 644.24,205.73 C641.86,213.56 637.28,229.06 635.08,236.74 C633.35,243.47 630.56,255.36 629.33,262.40 C627.92,270.99 627.76,271.75 627.59,272.21" fill="none" stroke="rgb(255, 255, 255)" stroke-width="10.00" stroke-opacity="1.00" stroke-linejoin="round"/>
<path d="M648.94,183.00 C648.73,189.17 646.81,198.33 644.28,207.73 C642.16,215.31 638.14,229.80 636.23,236.71 C632.31,251.84 630.87,268.02 630.73,269.33" fill="none" stroke="rgb(255, 255, 255)" stroke-width="10.00" stroke-opacity="1.00" stroke-linejoin="round"/>
<path d="M477.56,282.80 C472.27,286.42 460.88,294.01 456.84,296.29 C449.96,299.98 432.96,308.90 428.56,310.97 C420.36,314.82 413.92,316.77 413.38,316.78 C413.20,316.78 413.02,316.70 412.84,316.54" fill="none" stroke="rgb(255, 255, 255)" stroke-width="10.00" stroke-opacity="1.00" stroke-linejoin="round"/>
<path d="M419.57,170.98 C413.66,175.37 401.92,184.02 395.92,187.65 C393.05,189.33 388.20,192.14 384.10,194.36 C378.61,197.30 374.27,199.75 372.41,201.34 C372.18,201.53 371.79,201.89 371.24,202.42" fill="none" stroke="rgb(255, 255, 255)" stroke-width="10.00" stroke-opacity="1.00" stroke-linejoin="round"/>
<path d="M179.62,245.75 C179.62,245.75 178.95,244.52 178.95,244.52 C173.55,248.35 160.90,257.41 154.42,262.81 C148.68,267.72 135.27,280.10 132.21,283.19 C127.40,288.07 116.77,300.40 111.98,306.08 C98.93,322.71 89.54,337.04 78.43,356.32 C71.42,368.82 60.14,391.93 52.33,410.16 C48.46,419.96 43.97,433.38 42.34,439.52 C40.28,447.34 37.82,461.56 36.46,471.97 C35.15,482.97 34.40,493.00 34.41,501.62 C34.51,512.92 35.37,525.26 36.43,531.39 C37.92,539.54 40.70,549.95 43.86,560.41 C46.29,567.99 51.44,582.15 54.16,588.78 C60.01,602.26 69.57,618.88 70.91,621.21 C81.02,635.00 98.07,656.58 106.99,665.55 C112.01,670.53 123.00,679.93 128.75,684.23 C133.30,687.63 146.78,696.25 152.94,700.08 C165.27,707.22 178.59,714.94 179.58,715.52 C179.58,715.52 160.20,704.28 160.20,704.28 C160.20,704.28 180.00,715.76 180.00,715.76 C173.61,705.80 169.82,699.17 167.87,693.34 C166.92,690.43 162.25,672.73 160.23,664.88 C158.38,657.33 154.93,642.59 153.57,633.68 C152.04,623.37 151.02,615.19 150.45,605.51 C150.05,597.52 149.65,580.44 149.76,572.83 C150.15,561.39 153.07,524.34 154.46,513.15 C155.61,505.28 158.07,490.79 159.26,484.12 C160.51,477.92 163.91,463.78 166.02,456.90 C167.37,452.49 174.03,435.33 176.53,429.91 C179.10,424.36 186.63,410.54 190.04,404.42 C196.19,393.82 227.88,346.91 231.54,341.51 C231.54,341.51 178.95,244.52 178.95,244.52" fill="none" stroke="rgb(0, 0, 0)" stroke-width="17.00" stroke-opacity="0.99" stroke-linejoin="round"/>
<path d="M206.14,213.35 C205.59,212.07 204.42,209.49 204.36,208.87 C204.21,207.38 205.52,205.30 207.56,203.21 C207.56,203.21 210.74,201.86 210.74,201.86 C210.74,201.86 214.12,202.10 214.12,202.10 C228.62,211.03 250.31,226.22 262.89,234.89 C269.87,239.41 286.38,249.85 289.83,251.65 C292.44,253.00 297.10,254.58 301.61,255.69 C304.77,256.41 309.63,255.41 313.31,253.97 C322.82,250.24 332.15,246.15 340.09,241.93 C347.84,237.73 419.81,194.97 446.43,179.18 C451.74,176.03 462.19,169.83 467.32,166.79 C439.69,152.76 383.96,124.45 355.87,110.18 C341.62,102.95 326.35,95.19 325.32,94.67 C334.24,88.91 344.93,83.60 352.41,81.78 C356.37,80.86 362.49,81.19 366.29,81.86 C378.30,84.03 408.92,91.97 423.22,95.78 C453.10,104.01 510.84,119.98 538.69,127.72 C510.00,119.75 449.92,103.14 418.54,94.52 C403.95,90.67 370.84,82.31 362.72,81.33 C357.87,80.79 352.52,81.58 349.10,82.72 C341.30,85.41 333.16,89.56 325.32,94.67 C325.32,94.67 368.58,116.64 368.58,116.64 C368.58,116.64 325.32,94.67 325.32,94.67 C334.05,89.03 345.82,83.10 352.46,81.77 C358.99,80.53 369.20,82.29 371.28,82.70 C366.88,81.89 363.02,81.28 359.52,81.14 C355.79,81.03 349.44,82.43 345.92,83.71 C339.01,86.28 331.47,90.67 325.32,94.67 C325.32,94.67 358.16,111.35 358.16,111.35 C358.16,111.35 325.32,94.67 325.32,94.67 C333.99,89.07 346.01,82.99 352.45,81.77 C356.05,81.12 363.60,81.38 367.60,82.02 C367.60,82.02 356.51,81.27 356.51,81.27 C363.93,81.39 372.54,82.90 382.81,85.28 C413.07,93.00 471.24,109.00 500.68,117.16 C515.30,121.22 534.31,126.51 538.69,127.72 C564.85,113.27 617.86,84.08 644.71,69.35 C658.36,62.12 693.46,43.86 697.84,41.99 C703.38,39.65 714.79,36.67 724.80,34.56 C731.85,33.15 744.50,32.17 751.31,32.50 C758.81,32.90 771.91,35.71 779.33,38.00 C783.22,39.21 790.95,42.03 793.54,43.29 C800.82,46.92 806.83,52.53 809.92,55.60 C800.75,63.83 773.87,86.66 764.39,93.91 C754.52,101.10 725.35,120.01 712.72,127.74 C685.99,143.16 647.44,165.32 635.61,172.05 C626.93,199.40 609.24,255.12 600.23,283.50 C591.19,311.95 572.73,369.85 563.30,399.30 C560.87,406.96 555.15,424.73 553.59,428.38 C552.08,431.85 548.81,435.92 546.32,437.95 C540.19,442.80 528.03,452.49 522.00,457.33 C523.88,426.64 527.74,363.65 529.71,331.35 C531.47,302.64 534.61,251.30 536.00,228.67 C536.00,228.67 475.52,264.78 475.52,264.78 C475.52,264.78 473.78,265.78 473.78,265.78 C473.78,265.78 496.30,252.47 496.30,252.47 C483.37,260.07 456.57,275.45 443.30,282.56 C430.02,289.30 400.01,303.03 388.77,307.47 C370.74,314.16 344.58,322.84 331.31,326.31 C323.80,328.14 307.72,331.57 302.32,332.10 C300.32,332.29 292.57,332.60 288.93,332.27 C284.66,331.85 278.63,330.02 274.31,327.87 C270.91,326.14 266.06,321.97 263.64,319.31 C259.41,314.59 253.47,304.39 248.47,295.07 C234.00,267.40 211.73,225.56 204.36,208.87 C204.36,208.87 205.22,205.69 205.22,205.69 C205.22,205.69 207.56,203.21 207.56,203.21 C207.56,203.21 214.12,202.10 214.12,202.10 C228.56,211.08 252.36,227.49 265.52,236.72 C272.93,241.67 284.07,248.43 285.52,249.25" fill="none" stroke="rgb(0, 0, 0)" stroke-width="25.00" stroke-opacity="0.99" stroke-linejoin="round"/>
<path d="M86.16,508.26 C88.15,509.58 88.65,510.14 89.88,512.60 C90.66,514.20 92.95,517.47 92.98,517.56 C93.10,518.01 93.11,542.05 92.98,542.35 C92.60,543.15 90.01,545.99 89.26,546.69 C88.17,547.69 85.51,547.77 84.92,547.93 C84.46,548.05 82.07,549.78 81.20,550.41 C80.55,546.63 80.88,510.52 80.58,509.50 C80.22,508.32 78.42,504.82 78.10,503.93 C77.95,503.49 78.12,498.33 78.03,491.77 C77.95,486.97 78.00,478.94 78.98,476.83 C79.18,476.39 80.53,474.71 80.58,474.17 C80.66,473.35 80.89,469.81 81.82,467.97 C81.97,467.67 84.06,465.11 84.30,464.26 C84.48,463.58 84.25,459.81 84.30,459.30 C84.92,456.82 85.96,450.36 86.36,449.31 C87.13,447.29 88.32,446.15 88.64,445.66 C90.99,442.12 93.53,439.39 94.21,434.50 C94.28,434.11 95.92,433.45 96.07,433.26 C97.00,432.17 102.66,416.30 102.89,415.91 C105.29,411.80 106.24,408.84 106.61,407.23 C106.77,406.85 111.16,400.12 111.57,398.55 C111.73,397.95 111.79,395.70 112.81,394.21 C114.03,392.43 114.05,391.12 114.05,389.88 C114.26,388.98 115.01,388.28 115.29,387.40 C116.45,380.46 117.72,377.94 117.77,377.48 C117.85,376.66 117.47,375.77 117.77,375.00 C117.98,374.46 118.85,374.32 119.01,373.76 C119.26,372.88 118.92,368.96 119.01,368.80 C119.30,368.24 121.07,366.11 121.49,365.08 C121.89,364.12 122.59,360.35 122.73,360.12 C123.02,359.62 123.69,359.40 123.97,358.88 C124.36,358.13 125.50,354.79 125.83,353.93 C126.29,352.71 127.32,349.72 128.93,348.35 C130.22,347.25 131.12,345.61 131.40,345.25 C131.76,344.78 132.97,343.51 133.26,342.15 C133.40,341.59 134.03,338.45 134.50,337.81 C135.20,336.87 137.35,334.48 137.60,334.09 C138.77,332.28 140.94,326.44 141.32,326.03 C141.51,325.83 144.62,323.58 145.04,322.93 C145.29,322.55 149.19,314.50 149.38,314.26 C149.47,314.14 152.50,311.07 153.63,309.86 C155.13,308.28 157.24,307.69 158.06,307.44 C158.88,307.19 162.93,304.99 163.02,304.96 C163.79,304.64 165.01,305.87 165.50,306.20 C165.86,306.48 167.94,307.89 168.59,309.30 C168.95,310.05 169.51,314.18 169.83,314.88 C170.39,316.09 173.47,319.05 173.55,319.21 C174.17,320.37 175.00,323.49 175.88,324.85 C176.74,326.19 177.91,328.54 178.86,330.87 C179.95,333.51 182.07,335.70 182.85,336.57 C183.46,337.25 185.72,340.81 186.57,342.15" fill="none" stroke="rgb(0, 0, 0)" stroke-width="80.00" stroke-opacity="1.00" stroke-linejoin="round"/>
<path d="M84.90,546.96 C84.90,550.15 84.92,555.88 85.65,557.85 C88.99,566.50 99.24,583.71 102.18,587.15 C102.16,584.14 102.29,578.11 102.18,577.76 C102.05,577.33 101.12,575.66 101.43,574.38 C101.66,573.46 106.97,566.79 107.81,566.49 C107.81,566.49 108.94,569.87 108.94,569.87 C108.18,570.14 106.93,569.22 106.31,567.62 C105.95,566.68 105.20,562.82 105.18,561.61 C105.16,559.67 103.92,557.15 103.68,556.35 C103.59,556.05 103.66,547.00 103.64,542.83 C103.58,537.92 107.81,525.17 107.81,525.17 C109.06,523.88 110.33,516.13 110.44,515.78 C110.59,515.35 112.70,511.27 112.70,511.27 C112.77,510.52 112.74,508.34 113.07,507.89 C113.47,507.32 114.19,506.95 114.20,506.76 C114.30,504.48 115.50,499.64 115.70,498.87 C115.79,498.53 115.58,496.58 115.70,495.87 C115.90,494.66 117.56,491.22 117.96,487.60 C118.07,486.61 118.01,484.20 118.71,483.10 C119.07,482.53 120.19,476.50 120.21,474.45 C120.24,472.67 121.36,470.84 121.71,470.32 C122.33,469.44 124.20,457.11 124.72,454.92 C125.53,451.42 125.41,449.02 126.22,443.28 C126.31,442.66 126.89,437.13 126.97,436.89 C127.69,434.80 127.73,432.95 129.23,429.00 C129.46,428.39 138.22,400.13 138.24,400.07 C138.44,399.53 139.87,398.05 140.12,397.45 C141.16,394.97 141.34,392.16 144.63,388.05 C145.48,386.98 149.59,380.45 149.89,380.17 C153.69,376.99 160.33,366.98 161.44,365.16 C162.90,362.73 164.61,361.27 164.91,360.63 C165.06,360.33 165.18,359.57 165.29,358.38" fill="none" stroke="rgb(0, 0, 0)" stroke-width="80.00" stroke-opacity="1.00" stroke-linejoin="round"/>
<path d="M169.80,304.28 C169.80,304.28 167.92,304.28 167.92,304.28 C167.49,303.80 167.53,281.41 167.54,281.37 C167.73,280.55 174.26,272.52 174.68,271.98 C175.70,270.63 175.86,269.77 175.43,268.59 C175.32,268.33 175.20,267.95 175.06,267.47" fill="none" stroke="rgb(0, 0, 0)" stroke-width="30.00" stroke-opacity="1.00" stroke-linejoin="round"/>
<path d="M90.00,605.33 C91.14,605.83 92.33,608.82 92.47,609.07 C93.49,610.83 93.87,612.67 94.00,613.33 C94.23,614.57 95.42,616.17 95.67,616.67 C95.97,617.27 96.39,621.48 98.67,627.00 C98.74,627.17 98.56,628.50 98.67,629.00 C98.84,629.88 100.11,630.66 100.33,631.00 C100.69,631.53 100.67,634.33 100.67,634.33 C100.94,635.38 102.46,637.70 104.00,639.67 C104.00,639.67 103.00,640.00 103.00,640.00 C101.74,639.48 100.89,638.48 100.00,636.33 C99.38,634.83 97.54,632.87 97.00,632.00 C96.91,631.85 94.65,624.43 94.46,623.45 C94.12,621.79 93.72,620.24 93.33,619.67 C92.00,617.68 91.88,617.25 92.00,614.67 C92.03,614.11 91.99,610.09 92.00,609.67 C92.07,606.73 91.90,605.82 91.00,604.67 C89.63,602.84 88.75,602.14 88.00,601.67 C90.05,602.55 91.03,604.05 93.00,607.67 C93.16,607.98 94.73,612.17 95.33,613.00 C96.47,614.53 98.19,618.31 101.33,622.33 C102.26,623.51 106.77,628.94 107.00,629.33 C107.25,629.76 109.69,634.20 110.33,635.33 C112.17,638.55 114.01,639.88 114.33,640.33 C114.91,641.14 115.86,643.31 117.33,644.67 C119.07,646.31 120.98,651.93 122.67,654.00 C122.86,654.23 124.99,657.20 125.33,658.00 C125.56,658.54 128.87,661.44 129.00,661.67 C129.34,662.25 129.35,663.75 130.00,664.67 C132.57,668.34 133.68,669.01 139.67,674.33 C140.53,675.10 146.56,681.99 147.00,682.33 C148.87,683.78 151.61,685.57 152.00,686.33 C152.21,686.61 150.52,686.78 148.00,686.67 C146.93,686.60 145.67,686.01 145.00,685.33 C144.30,684.58 141.08,680.79 141.00,680.67 C140.66,680.12 136.87,670.39 136.33,667.00 C136.13,665.68 134.99,663.15 134.67,662.00 C134.49,661.36 134.74,649.72 134.00,643.33 C133.31,637.10 133.28,624.11 133.27,615.46 C133.29,606.07 133.32,592.17 133.33,587.67 C133.16,588.32 135.32,595.28 135.33,596.33 C135.40,600.44 139.32,618.34 139.67,619.00 C140.37,620.31 141.26,625.50 142.00,626.33 C143.00,627.42 143.90,633.64 144.00,634.33 C144.11,635.05 143.90,639.98 144.00,640.33 C144.08,640.64 144.64,641.89 144.67,642.33 C144.72,643.19 145.30,644.65 145.33,645.00 C145.38,645.50 145.67,653.17 146.00,655.33 C146.05,656.08 147.94,660.97 146.67,661.33 C146.18,661.46 144.78,662.10 144.00,662.00" fill="none" stroke="rgb(0, 0, 0)" stroke-width="30.00" stroke-opacity="1.00" stroke-linejoin="round"/>
<path d="M270.25,276.86 C270.25,276.86 270.25,278.10 270.25,278.10 C269.07,279.04 264.42,279.67 262.81,280.99 C261.86,281.77 260.56,281.98 258.26,281.82 C257.03,281.71 255.98,279.70 254.96,275.62 C254.55,273.35 253.13,268.64 252.89,267.36 C252.72,266.41 252.21,260.45 252.07,259.92 C252.06,259.88 250.04,255.42 249.59,254.96 C248.76,254.14 246.90,251.24 245.87,249.59 C245.55,249.11 240.45,245.59 240.08,245.45 C239.27,245.45 237.46,243.65 235.95,241.19 C235.19,239.94 231.06,232.88 230.17,231.82 C231.34,235.96 240.25,247.12 241.32,247.52 C241.45,247.56 241.59,247.56 241.74,247.52 C239.92,244.10 238.77,242.46 234.71,237.60 C231.94,234.28 229.58,229.81 229.34,229.75 C233.88,234.30 245.92,247.18 248.26,249.53 C251.14,252.44 263.33,261.31 266.12,262.40 C269.20,263.59 272.03,265.53 273.97,266.12 C275.41,266.55 276.99,268.19 277.27,268.60 C277.90,269.52 282.79,270.34 283.06,270.66 C280.28,271.12 274.08,271.12 273.97,271.07 C273.84,271.02 269.30,267.63 265.70,265.29 C266.48,267.65 269.57,271.44 271.07,273.97 C271.24,274.26 274.75,278.56 276.03,279.75 C275.53,281.36 274.85,282.31 273.41,283.15 C270.45,284.88 268.56,287.51 268.18,287.60 C265.20,288.27 263.75,288.26 263.22,288.43 C262.85,288.56 259.94,290.08 259.92,290.08 C259.12,290.17 259.77,292.71 261.89,295.44 C264.34,298.51 268.33,300.37 269.01,300.83 C269.38,301.00 275.07,301.65 277.28,302.61 C280.81,304.17 284.11,307.33 284.71,307.85 C285.37,308.43 287.49,310.09 289.67,311.98 C289.03,312.45 283.63,312.62 280.58,311.16 C280.30,311.02 279.58,310.77 278.51,311.16 C279.28,313.02 284.08,316.25 284.71,316.53 C284.79,316.56 303.76,316.62 304.13,316.53 C304.99,316.32 316.54,309.81 320.66,308.68 C324.03,307.73 329.09,303.90 329.34,303.72 C329.53,303.58 335.22,297.90 335.54,297.52 C335.98,297.00 337.80,294.97 338.43,295.04 C339.00,294.16 339.65,293.22 339.67,292.98 C339.68,292.08 339.05,291.58 337.56,291.64 C334.80,291.76 317.86,291.72 314.43,291.81 C312.82,291.85 311.05,291.08 310.33,290.91 C309.11,290.59 304.25,287.46 303.40,286.66 C300.87,284.29 296.93,282.50 296.69,282.23 C296.50,281.99 295.03,280.42 294.63,279.75 C294.18,279.00 293.52,276.64 292.56,275.62 C292.42,275.47 292.15,275.20 291.74,274.79 C292.14,274.36 293.53,274.45 295.04,275.21 C295.77,275.57 302.07,279.97 303.52,280.06 C306.63,280.18 314.76,280.14 316.12,280.17 C319.66,280.21 325.21,278.93 328.26,278.15 C331.48,277.30 339.10,275.21 339.26,275.21 C340.05,275.22 345.02,272.33 345.04,272.31 C345.68,271.86 353.38,271.86 353.72,271.49 C353.18,271.05 330.32,271.02 328.25,271.49 C326.25,271.94 325.78,271.86 323.97,271.49 C325.11,268.94 326.14,267.42 328.01,265.74 C330.40,263.61 336.16,260.94 337.60,259.92 C338.08,259.58 343.00,255.91 345.45,254.96 C349.07,253.66 358.73,248.43 360.33,247.93 C360.87,247.76 362.09,247.46 363.38,246.07 C367.40,241.71 378.51,235.39 382.23,234.30 C387.24,233.05 391.90,230.68 395.45,229.34 C397.03,228.75 410.22,220.94 414.05,216.94 C414.66,216.31 415.02,215.44 415.70,214.88 C416.56,214.17 419.61,212.60 420.66,211.57 C421.11,211.13 425.96,206.27 426.45,205.79 C426.80,205.43 428.66,201.92 428.93,201.65 C430.67,199.91 463.04,182.21 464.05,181.40 C464.13,181.34 465.55,179.54 467.55,177.38 C469.33,175.54 474.00,172.70 476.37,171.29 C477.81,170.40 481.80,166.92 485.87,165.64 C490.66,164.15 493.82,162.72 495.45,162.81 C496.01,164.38 495.59,172.66 494.58,175.04 C494.10,176.07 491.65,178.72 490.50,179.34 C489.61,179.81 487.11,180.35 485.80,181.47 C481.53,185.14 470.00,201.36 469.08,202.55 C468.66,203.09 463.54,209.22 460.38,212.49 C458.11,214.82 454.12,216.98 450.83,219.01 C447.61,220.91 443.71,221.70 443.39,221.90 C442.90,222.21 436.88,226.15 435.95,226.45 C435.19,226.68 408.27,240.68 404.17,242.64 C401.06,244.13 390.09,253.37 387.60,256.20 C381.24,263.49 373.52,271.22 371.07,273.14 C367.91,275.65 364.54,279.56 364.05,280.17 C361.96,282.69 357.67,285.20 356.58,286.30 C355.23,287.69 354.65,288.40 354.13,289.26 C355.65,288.57 361.89,283.57 361.98,283.47 C362.29,283.16 367.64,275.38 368.61,274.41 C374.52,268.59 401.10,251.99 403.31,250.83 C405.79,249.53 411.64,247.17 412.81,246.69 C409.87,249.56 406.82,252.39 403.57,254.96 C399.87,257.87 392.91,262.55 392.56,262.81 C390.60,264.26 367.69,284.99 367.22,285.56 C363.52,290.09 362.45,291.56 361.57,292.56 C361.28,292.90 360.95,294.51 360.74,295.04 C360.30,296.17 358.28,298.11 357.85,298.76 C357.70,298.99 357.51,300.36 356.20,302.07 C355.58,302.88 355.25,303.56 354.96,304.13 C354.38,304.07 353.39,304.32 352.89,304.96 C351.44,307.37 350.03,307.51 349.17,309.92 C351.91,307.57 354.64,304.97 355.79,304.13 C356.73,303.45 365.07,298.05 367.26,296.06 C368.13,295.26 372.27,290.64 375.28,288.82 C381.59,285.04 393.91,277.61 399.55,275.26 C403.56,273.59 405.24,273.25 407.02,271.90 C409.21,270.27 412.07,270.23 414.05,269.01 C416.22,267.68 422.34,266.75 422.73,266.53 C426.25,264.55 428.65,263.80 431.69,263.11 C434.17,262.54 442.08,259.18 444.03,258.37 C445.92,257.59 450.42,255.76 453.85,255.37 C457.43,254.97 460.28,254.14 461.57,253.72 C460.24,254.55 457.48,257.04 454.46,259.87 C452.23,261.91 449.56,263.06 445.81,264.01 C442.64,264.80 435.29,266.34 433.06,267.36 C430.31,268.46 427.83,270.18 426.45,270.25 C425.99,270.27 423.39,272.37 419.83,273.55 C418.75,273.94 416.63,275.59 416.53,275.62 C416.21,275.73 413.32,276.07 412.81,276.45 C410.52,278.13 408.76,278.60 407.85,278.93 C409.20,278.42 419.41,268.16 426.59,262.61 C434.27,256.71 482.32,224.94 488.83,221.39 C498.62,215.93 500.37,211.93 502.07,210.74 C501.97,212.05 493.59,218.86 484.82,224.79 C476.23,230.35 469.16,234.40 461.25,238.33 C454.30,241.59 440.11,248.12 432.87,251.39 C424.59,255.03 418.41,256.83 409.30,258.86 C405.83,259.65 402.36,260.73 401.24,261.16 C400.87,263.22 400.95,265.99 400.83,266.94 C400.71,267.76 396.06,273.45 394.35,275.05 C393.46,275.87 388.33,278.59 385.95,280.58 C382.49,283.56 382.05,284.11 382.23,284.30 C383.39,284.22 385.72,284.12 386.36,283.88 C387.52,283.46 406.26,275.12 407.85,274.38 C412.20,272.39 450.82,258.41 466.87,252.28 C473.14,249.82 482.05,246.31 490.78,241.02 C524.16,220.57 546.40,208.29 548.12,207.55 C552.82,205.76 562.98,199.78 565.29,197.93 C566.21,197.31 571.40,193.47 573.14,193.39 C573.42,193.38 574.16,193.34 574.79,192.98 C574.36,192.93 567.05,193.90 564.88,195.45 C564.16,195.96 562.74,197.14 560.33,197.52 C555.31,198.29 516.27,214.17 509.67,216.35 C502.36,218.71 481.64,225.55 481.40,225.62 C474.19,227.76 471.79,227.66 470.25,227.27 C469.84,224.83 471.16,220.80 474.04,216.36 C475.70,213.86 486.92,199.57 489.82,196.89 C499.33,188.17 514.98,177.83 536.72,162.02 C551.86,151.05 560.95,148.35 562.40,147.93 C563.30,148.55 560.96,152.74 558.26,155.79 C554.29,160.14 541.16,168.64 534.67,172.80 C501.78,193.28 485.69,202.70 485.54,202.07 C484.76,200.72 486.69,198.36 491.44,193.42 C497.41,186.89 507.84,178.76 514.05,173.97 C518.96,170.37 533.26,159.45 536.78,157.02 C540.51,154.46 549.33,149.34 550.41,148.76 C552.51,147.65 559.00,144.28 559.09,143.39 C555.65,146.96 549.49,151.06 540.91,154.96 C538.02,156.20 534.26,157.84 529.34,160.33 C524.02,162.96 516.91,163.95 516.12,164.46 C515.98,161.71 518.44,155.20 520.83,152.00 C522.70,149.52 528.16,144.03 528.51,143.80 C529.39,143.23 532.63,141.98 533.88,140.91 C534.22,140.63 534.77,140.07 535.54,139.26 C536.00,139.64 533.66,141.50 528.76,144.47 C524.50,147.03 517.70,150.37 514.15,151.41 C511.77,152.09 491.89,154.95 491.74,154.13 C491.59,153.05 491.92,151.78 492.98,149.17 C490.83,150.97 486.10,151.59 485.54,151.24 C485.12,150.83 484.12,150.20 483.88,150.00 C483.50,149.66 483.57,148.60 483.47,148.35 C483.21,147.69 480.91,145.36 479.75,144.63 C478.93,144.12 474.74,142.88 471.90,140.91 C470.15,139.66 465.85,134.86 465.70,134.71 C465.00,134.00 463.36,133.92 462.81,133.88 C462.03,133.83 459.15,131.85 456.61,130.17 C454.42,128.74 447.33,125.80 442.15,124.38 C440.67,124.00 435.12,123.16 434.71,123.14 C434.29,123.12 422.88,120.87 421.90,120.66 C417.95,119.79 412.05,117.00 407.47,114.06 C405.53,112.81 403.26,112.29 402.07,111.57 C400.95,110.87 398.70,109.05 397.93,108.26 C395.53,105.82 394.08,105.50 393.80,105.37 C393.52,105.24 392.83,104.97 391.74,104.55 C391.74,104.55 390.50,105.37 390.50,105.37 C392.38,108.48 393.18,109.31 396.16,110.36 C399.57,111.57 407.55,114.39 407.85,114.46 C408.85,114.69 413.16,115.30 414.46,115.70 C415.68,116.07 418.54,117.65 419.01,117.77 C420.32,118.09 423.97,118.18 425.21,118.18 C426.11,118.22 430.37,120.66 432.23,121.49 C434.50,122.94 438.30,122.99 439.26,123.14 C442.24,123.61 457.97,133.05 460.33,135.12 C462.23,136.72 465.29,137.60 468.18,138.43 C468.28,138.46 474.17,139.26 476.45,139.67 C477.89,139.79 483.16,139.66 483.88,139.67 C483.88,139.67 484.30,135.95 484.30,135.95 C483.25,135.38 475.38,127.76 475.21,127.69 C474.52,127.41 472.80,127.25 472.31,127.27 C477.02,127.34 478.88,127.23 480.51,128.21 C482.83,129.62 489.48,131.98 490.50,132.23 C491.16,132.40 492.95,132.28 495.45,133.06 C498.70,134.05 505.64,133.70 506.20,133.88 C507.08,134.19 513.16,138.39 514.05,138.84 C514.74,139.20 520.16,141.22 522.31,142.98 C523.69,144.09 539.25,152.67 542.98,154.96 C544.83,156.09 549.27,157.00 552.48,159.09 C553.62,159.84 554.62,160.97 554.96,161.16 C555.61,161.52 558.26,162.53 559.09,163.22 C559.69,163.72 564.50,167.14 564.88,168.18 C565.16,168.97 565.55,171.94 566.12,172.73 C566.45,173.20 567.88,175.09 568.18,175.62 C568.58,176.35 568.79,178.18 568.60,179.34 C568.42,180.24 564.86,181.08 563.64,181.40 C562.79,181.61 554.59,184.07 553.31,184.30 C552.26,184.48 547.96,184.18 547.52,184.30 C546.31,184.62 542.42,187.62 541.28,188.41 C539.93,189.35 536.59,193.31 536.36,194.63 C537.97,194.98 539.15,195.13 540.08,195.04 C541.38,194.89 543.31,193.06 547.89,189.57 C549.51,188.34 554.89,185.14 554.96,185.12 C555.34,185.02 557.85,185.23 558.26,185.12 C558.41,185.09 561.11,183.68 561.98,183.47 C562.77,183.28 581.49,183.43 583.88,183.88 C583.88,183.88 584.30,186.78 584.30,186.78" fill="none" stroke="rgb(0, 0, 0)" stroke-width="30.00" stroke-opacity="1.00" stroke-linejoin="round"/>
<path d="M563.64,226.45 C563.68,227.88 563.80,231.18 563.64,231.82 C563.56,232.12 561.38,236.18 561.16,237.19 C561.00,237.86 561.13,240.02 560.74,240.91 C560.25,241.96 554.42,242.30 553.31,241.74 C552.20,241.14 550.99,239.28 550.13,237.15 C548.86,233.76 548.54,229.70 549.59,227.69 C550.00,226.92 550.45,221.84 550.83,221.49 C551.89,222.37 552.17,222.94 552.07,224.38 C551.98,225.71 552.13,295.55 552.14,302.56 C552.07,306.98 551.11,310.83 551.17,312.85 C551.25,315.69 551.30,331.05 551.36,335.24 C551.42,338.05 549.40,343.55 548.76,344.63 C547.82,346.27 547.95,351.74 547.93,354.45 C547.92,356.09 547.95,357.47 548.00,359.11 C548.02,359.53 546.63,364.49 547.11,367.36 C547.22,367.99 545.50,370.91 545.45,371.07 C545.19,371.96 545.62,376.03 545.45,376.45 C545.21,377.09 542.21,381.35 542.15,381.82 C541.90,383.76 539.23,388.13 538.84,390.08 C538.68,390.95 538.80,395.37 538.84,397.11 C538.90,398.35 537.88,401.69 538.02,405.79 C538.15,408.78 536.79,419.44 535.12,421.49 C534.88,421.78 534.47,421.92 533.88,421.90 C533.89,416.46 533.89,402.16 533.89,393.30 C533.89,391.06 535.17,376.58 535.64,370.93 C535.64,367.76 535.33,359.80 535.54,358.68 C535.73,357.69 537.11,355.20 537.19,354.96 C538.15,352.15 538.77,340.05 538.84,339.67 C539.01,338.79 541.26,332.27 541.32,329.34 C541.36,327.87 544.15,321.70 544.21,321.49 C544.41,320.81 546.20,312.76 547.15,308.81 C548.09,305.01 549.20,302.15 550.83,300.00 C551.82,300.26 552.52,300.71 552.89,301.65 C554.36,305.38 554.74,320.86 555.13,325.05 C555.46,328.78 555.39,336.09 555.33,339.34 C555.30,342.49 556.25,346.62 556.20,350.00 C556.04,338.76 556.69,333.19 558.32,323.86 C559.56,316.48 562.87,296.72 563.92,293.49 C565.10,290.30 567.17,282.59 568.18,279.55 C569.23,276.43 576.23,258.95 579.07,251.62 C582.56,242.39 583.83,236.39 584.61,227.39 C585.09,221.49 585.26,217.37 585.54,216.12 C585.78,215.07 588.16,207.09 588.86,204.00 C589.22,202.41 589.18,200.00 589.26,199.17 C589.32,198.47 590.96,191.31 590.85,188.76 C590.78,186.87 592.51,172.72 592.56,172.31 C592.60,172.00 593.13,171.88 593.80,171.90 C595.66,174.15 596.50,177.27 596.69,183.47 C596.78,194.96 595.91,204.51 594.94,208.65 C592.00,220.89 584.41,238.88 580.35,249.44 C578.56,254.12 577.09,256.79 576.86,258.68 C576.64,260.43 574.84,262.37 573.97,263.64 C572.70,263.09 571.33,262.08 571.07,261.16 C570.93,260.63 571.06,184.13 571.07,173.97 C572.29,174.70 572.75,177.82 572.79,189.74 C572.77,208.37 572.74,236.85 572.73,246.69 C572.72,239.74 572.72,224.57 573.55,219.95 C575.41,212.66 577.96,201.65 578.51,201.24 C583.71,197.55 586.77,196.20 590.81,195.72 C592.52,195.56 594.13,196.69 595.04,198.76 C595.20,199.13 596.64,208.11 596.69,208.68 C596.86,210.46 598.17,216.65 598.35,217.77 C598.42,218.21 598.36,226.25 598.23,228.83 C598.14,230.46 597.11,232.37 596.69,233.06 C595.72,234.69 596.02,240.38 595.04,244.63 C594.69,246.14 592.86,250.66 592.56,254.13 C592.53,254.52 591.50,262.08 590.91,263.22 C590.74,263.54 580.42,278.29 580.17,278.93 C580.01,279.31 579.89,281.48 578.93,283.47 C578.87,283.59 576.21,289.36 576.03,290.08 C575.51,292.27 574.40,294.79 573.97,295.04 C573.70,295.20 572.73,295.89 572.73,296.69 C572.73,298.76 571.59,300.39 571.07,301.24 C569.26,304.22 567.09,313.64 566.12,315.29 C565.29,314.46 565.28,296.82 565.29,288.20 C565.27,281.09 565.14,268.11 566.12,261.98 C567.79,251.76 572.42,243.77 573.14,241.74 C573.48,240.79 575.29,235.05 575.62,234.30 C575.70,234.12 579.34,226.67 579.34,224.79 C579.34,223.33 585.77,211.54 588.94,207.33 C592.52,202.60 598.08,197.71 603.72,194.63 C604.18,194.39 604.73,194.26 605.37,194.21 C605.77,194.87 605.84,209.52 604.96,212.40 C603.97,215.49 602.33,220.62 601.20,224.33 C600.54,226.42 598.40,230.04 597.11,233.88 C595.87,236.78 593.52,243.54 592.98,244.21 C590.58,247.12 587.80,254.65 583.88,261.57 C582.78,263.56 582.66,265.43 582.64,266.12 C582.61,267.24 581.92,270.42 581.40,271.49 C580.92,272.49 578.45,276.65 578.10,277.69 C577.87,278.35 577.99,279.12 577.69,279.75 C577.44,280.28 575.64,281.86 575.21,283.06 C573.90,286.71 573.05,291.87 572.31,293.39 C566.53,304.13 560.01,318.79 558.68,323.97 C558.57,324.41 558.72,332.70 558.76,335.64 C558.79,338.47 557.62,341.49 557.02,342.56 C556.84,337.97 556.86,333.48 557.55,329.85 C557.73,328.92 560.35,317.73 560.74,316.53 C561.12,315.39 562.86,310.59 562.82,306.84 C562.81,306.34 562.81,305.57 562.81,304.55 C562.34,307.02 560.91,311.43 559.45,313.89 C558.86,314.80 557.29,317.16 556.61,317.36 C556.41,317.41 547.54,317.55 544.43,316.53 C544.02,316.39 543.26,316.12 542.15,315.70" fill="none" stroke="rgb(0, 0, 0)" stroke-width="30.00" stroke-opacity="1.00" stroke-linejoin="round"/>
<path d="M567.24,141.62 C570.02,139.64 573.06,137.30 574.76,135.99 C577.23,134.10 593.99,128.41 600.44,125.44 C603.01,124.27 619.56,119.27 619.83,119.08 C620.71,118.46 627.80,109.29 631.89,106.76 C638.70,102.64 644.62,100.68 648.01,98.05 C646.93,100.75 646.06,102.14 644.63,103.17 C641.16,105.69 629.59,113.78 627.29,115.36 C621.34,119.39 608.23,123.51 602.93,125.47 C602.69,125.54 601.26,126.37 600.68,126.60 C600.34,126.73 597.20,127.06 596.92,127.35 C596.80,127.47 596.55,127.85 596.17,128.47 C596.17,128.47 592.04,128.85 592.04,128.85 C591.74,127.14 593.97,123.67 598.51,118.19 C602.31,113.72 613.82,105.18 618.92,101.65 C620.58,100.51 629.16,95.75 629.89,95.45 C633.10,94.14 641.97,91.72 646.34,90.55 C648.84,89.88 654.06,89.26 655.52,88.66 C653.99,87.88 652.03,87.95 650.26,89.03 C650.19,89.08 645.12,94.23 643.12,95.79 C642.21,96.51 627.43,107.71 624.14,110.59 C621.62,112.79 615.72,117.44 613.34,119.65 C611.58,121.30 606.49,126.53 604.20,128.38 C600.06,131.72 598.46,133.35 598.05,134.86 C597.57,136.68 592.98,142.29 592.79,143.13 C593.59,142.66 597.71,138.39 600.56,136.23 C605.55,132.54 612.45,127.11 617.96,124.34 C623.97,121.15 630.49,117.71 631.10,117.58 C630.92,119.41 621.79,130.55 618.11,135.64 C616.00,138.27 611.48,144.65 611.19,145.00 C608.70,148.09 608.51,149.06 608.56,149.89 C612.09,147.74 616.79,139.97 617.96,138.62 C618.47,138.02 623.06,133.46 624.72,131.48 C625.13,133.22 625.13,150.03 625.15,156.93 C625.21,162.23 624.21,173.21 624.39,182.02 C624.41,183.38 624.28,183.98 623.97,184.45 C622.50,184.76 620.52,185.03 619.83,184.82 C618.45,184.36 617.05,179.35 615.63,173.56 C614.81,170.17 608.66,156.36 607.44,154.40 C607.44,154.40 606.31,154.40 606.31,154.40 C606.31,154.40 601.05,163.41 601.05,163.41 C600.90,161.53 602.72,157.07 604.76,154.27 C607.79,150.20 625.62,134.46 626.67,133.68 C628.95,132.01 644.42,121.91 650.62,117.93 C654.04,115.82 667.12,110.88 670.17,109.32 C670.18,111.46 667.80,114.58 663.13,118.19 C657.52,122.48 626.55,153.03 621.22,157.13 C619.99,158.08 616.97,160.29 616.36,160.78 C614.18,162.51 612.87,164.13 611.95,166.04 C614.07,165.78 615.28,165.49 616.15,164.83 C621.00,161.14 647.93,135.50 660.19,125.95 C669.78,119.07 679.93,110.71 680.69,110.82 C680.90,111.09 681.71,111.67 681.82,111.95 C682.17,112.90 682.18,121.21 681.80,122.58 C681.03,125.15 678.64,128.51 674.98,131.49 C673.00,133.08 671.45,134.14 670.17,134.86 C670.17,134.86 669.05,134.49 669.05,134.49 C668.70,133.18 668.64,131.45 669.05,129.98 C669.47,128.57 670.48,127.37 672.43,125.86 C676.82,122.43 683.09,117.86 686.47,115.92 C689.71,114.09 701.61,109.86 713.98,104.56 C717.24,103.18 721.05,100.19 723.48,98.21 C726.65,95.83 731.88,92.96 733.04,92.05 C736.67,89.21 742.17,86.35 742.67,86.03 C742.82,85.93 745.96,80.89 749.41,75.76 C750.46,74.21 753.99,69.51 754.70,69.12 C755.75,68.56 760.68,68.36 766.76,67.60 C772.84,66.74 776.67,65.55 779.49,64.61 C779.85,64.50 779.79,62.16 779.81,61.12 C779.82,60.03 779.77,57.13 779.11,56.72 C777.61,55.92 774.61,55.56 768.56,55.49 C763.98,55.50 755.46,55.54 751.53,55.56 C749.07,55.58 743.98,55.79 741.07,54.85 C738.63,54.05 730.51,54.02 729.90,54.09 C729.02,54.21 723.22,55.85 719.65,56.50 C714.44,57.41 710.07,57.85 708.86,58.98 C707.33,60.43 704.07,62.49 700.60,63.49 C698.16,64.61 690.21,68.19 688.96,68.37 C688.54,68.43 685.78,70.60 685.20,71.00 C685.02,71.12 682.60,72.03 682.19,72.50 C681.66,73.10 679.50,75.54 678.06,76.26 C673.34,78.63 661.78,83.38 654.95,89.76 C653.48,91.14 650.83,93.08 650.26,94.29 C650.10,94.65 648.21,98.40 648.01,98.80 C654.41,91.79 659.37,87.83 665.93,83.75 C668.77,81.96 674.82,78.10 677.31,77.39 C680.18,76.59 686.28,74.50 689.33,73.63 C689.81,73.49 702.38,71.13 702.85,71.00 C704.00,70.67 712.13,68.54 714.88,68.37 C715.84,68.31 728.27,68.31 728.40,68.37 C728.74,68.52 729.12,69.03 729.53,69.87 C727.24,73.58 724.55,76.27 721.05,78.11 C709.37,84.15 694.65,88.86 687.45,91.66 C682.22,93.66 679.72,94.46 675.81,94.67 C669.42,94.98 660.64,97.15 660.03,97.67 C659.07,98.52 654.85,98.40 654.39,98.42" fill="none" stroke="rgb(0, 0, 0)" stroke-width="30.00" stroke-opacity="1.00" stroke-linejoin="round"/>
<path d="M208.68,411.51 C208.21,411.56 206.95,412.43 205.72,413.65 C203.34,416.03 196.01,427.20 193.21,432.69 C187.06,444.84 184.30,459.18 184.18,460.11 C184.12,460.64 184.03,461.65 183.92,463.14" fill="none" stroke="rgb(255, 255, 255)" stroke-width="10.00" stroke-opacity="1.00" stroke-linejoin="round"/>
<path d="M204.89,416.68 C203.99,416.65 201.75,418.70 200.05,421.57 C196.91,426.89 190.10,440.49 188.77,444.09 C187.70,447.08 187.60,449.00 187.64,451.08" fill="none" stroke="rgb(255, 255, 255)" stroke-width="10.00" stroke-opacity="1.00" stroke-linejoin="round"/>
</g>
</svg>
